<svg t="1719655034869" class="icon" viewBox="0 0 1024 1024" version="1.1" xmlns="http://www.w3.org/2000/svg" p-id="2466" width="48" height="48"><path d="M845.824 189.952h-261.12c7.68 30.72 14.848 58.88 20.992 87.04a18.944 18.944 0 0 0 17.408 15.872l209.408 46.08a51.2 51.2 0 0 1 44.032 55.808v233.472a51.2 51.2 0 0 1-44.544 55.808l-210.944 46.592c-5.12 0-11.776 4.608-13.312 8.704-8.704 30.208-15.872 60.928-24.064 93.696h261.12a171.52 171.52 0 0 0 179.2-178.688V368.128a171.52 171.52 0 0 0-178.176-178.176zM402.432 730.624l-210.944-47.104a51.2 51.2 0 0 1-44.032-54.272V394.24a51.2 51.2 0 0 1 44.544-55.296l209.408-46.592c5.12 0 13.312-5.12 14.336-9.216 8.704-30.208 15.872-60.928 23.552-92.16H163.328A169.984 169.984 0 0 0 0 354.304V665.6a169.984 169.984 0 0 0 168.96 167.424h270.848c-8.192-31.744-14.848-62.464-23.552-92.16a20.48 20.48 0 0 0-13.824-10.24z" fill="#ff8c1f" p-id="2467"></path><path d="M616.96 512c0-8.704 0-14.848-12.288-14.848H419.84c-10.24 0-10.24 6.144-10.24 14.848s0 14.336 12.8 13.824h183.808c8.192 0 11.264-4.608 10.752-13.824z" fill="#ff8c1f" p-id="2468"></path></svg>