<svg t="1719658621390" class="icon" viewBox="0 0 1819 1024" version="1.1" xmlns="http://www.w3.org/2000/svg" p-id="4787" width="48" height="48"><path d="M1147.56349681 687.880033c-54.692956 0-93.8406 46.9203-93.8406 46.9203-171.946311 156.306211-422.09312199 179.813755-617.546977 54.692956 93.745811 140.666111 250.146811 234.506711 429.96056601 234.506711 148.533555 0 289.199667-62.5604 383.04026699-171.946311 0 0 7.772656-39.052856 7.77265599-62.5604-15.545311-62.5604-54.598167-101.613256-109.38591199-101.613256z m0 0" fill="#ED4636" p-id="4788"></path><path d="M959.97708581 7.772656s-39.052856 7.867444-62.5604 23.412755c-39.052856 31.2802-54.692956 85.973156-23.41275498 132.893456 31.2802 46.9203 85.973156 54.692956 85.97315498 54.692956 117.253356 39.052856 218.866611 117.253356 289.199667 226.63926699 46.9203 85.973156 70.333056 179.813755 62.56040002 281.42701101 78.2005-148.533555 78.2005-328.347311-7.77265603-484.65352301C1225.76399681 125.1208 1100.73798582 31.2802 959.97708581 7.772656z m0 0" fill="#82D531" p-id="4789"></path><path d="M561.39150781 656.599833c31.2802-46.9203 7.867444-101.613256 7.867444-101.61325501-31.2802-125.026011-7.867444-250.146811 54.692956-359.53272299C670.77741881 109.4807 748.97791881 46.9203 834.95107481 0 670.77741881 7.772656 514.47120782 93.745811 420.63060781 250.146811c-70.333056 125.1208-85.973156 273.559567-39.052855 414.32046701 0 0 23.412756 23.412756 54.692955 39.05285499 39.052856 23.412756 93.8406 7.772656 125.1208-46.9203z m0 0" fill="#F8BE32" p-id="4790"></path><path d="M1038.1775858 570.62667801c-7.772656-39.052856-39.052856-70.333056-39.05285598-70.33305602 7.867444-39.052856-7.772656-39.052856-7.772655-39.052856 0-117.253356-101.613256-109.4807-101.613256-109.48069899s-101.613256 0-101.613256 109.48069899c0 0-15.6401 7.772656-7.867444 39.052856 0 0-31.2802 23.412756-39.05285601 70.333056 0 0-7.772656 70.333056 31.28019999 7.772656 0 0 7.772656 23.412756 23.412756 39.05285501 0 0-23.412756 7.772656-23.412756 31.2802 0 0 0 23.412756 54.69295601 23.412756 0 0 39.052856 0 54.692956-23.412756h15.64009999c15.6401 15.6401 54.692956 23.412756 54.692955 23.412756 62.5604 0 54.692956-23.412756 54.69295601-23.412756 0-23.412756-23.412756-31.2802-23.412756-31.2802 15.6401-23.412756 23.412756-39.052856 23.412756-39.05285501 39.052856 62.5604 31.2802-7.772656 31.28019999-7.772656z m0 0" fill="#1599FF" p-id="4791"></path></svg>